HIERARCHY
ROOT Hips
{
	OFFSET	0.00	0.00	0.00
	CHANNELS 6 Xposition Yposition Zposition Zrotation Xrotation Yrotation
	JOINT LeftUpLeg
	{
		OFFSET	 0.126116	-0.065224	 0.014019
		CHANNELS 3 Zrotation Xrotation Yrotation
		JOINT LeftLeg
		{
			OFFSET	 0.000000	 0.569914	 0.000000
			CHANNELS 3 Zrotation Xrotation Yrotation
			JOINT LeftFoot
			{
				OFFSET	 0.000000	 0.544423	 0.000000
				CHANNELS 3 Zrotation Xrotation Yrotation
				JOINT LeftToeBase
				{
					OFFSET	 0.000000	 0.207117	 0.000000
					CHANNELS 3 Zrotation Xrotation Yrotation
					End Site
					{
						OFFSET	 0.000000	 0.207117	 0.000000
					}
				}
			}
		}
	}
	JOINT RightUpLeg
	{
		OFFSET	-0.124023	-0.065224	 0.008373
		CHANNELS 3 Zrotation Xrotation Yrotation
		JOINT RightLeg
		{
			OFFSET	 0.000000	 0.570047	 0.000000
			CHANNELS 3 Zrotation Xrotation Yrotation
			JOINT RightFoot
			{
				OFFSET	 0.000000	 0.544354	 0.000000
				CHANNELS 3 Zrotation Xrotation Yrotation
				JOINT RightToeBase
				{
					OFFSET	 0.000000	 0.207540	 0.000000
					CHANNELS 3 Zrotation Xrotation Yrotation
					End Site
					{
						OFFSET	 0.000000	 0.207540	 0.000000
					}
				}
			}
		}
	}
	JOINT Spine
	{
		OFFSET	 0.000184	 0.117403	 0.007763
		CHANNELS 3 Zrotation Xrotation Yrotation
		JOINT Spine1
		{
			OFFSET	 0.000000	 0.137269	 0.000000
			CHANNELS 3 Zrotation Xrotation Yrotation
			JOINT Spine2
			{
				OFFSET	 0.000000	 0.156879	 0.000000
				CHANNELS 3 Zrotation Xrotation Yrotation
				JOINT LeftShoulder
				{
					OFFSET	 0.080501	 0.160143	 0.002496
					CHANNELS 3 Zrotation Xrotation Yrotation
					JOINT LeftArm
					{
						OFFSET	 0.000000	 0.164363	 0.000000
						CHANNELS 3 Zrotation Xrotation Yrotation
						JOINT LeftForeArm
						{
							OFFSET	 0.000000	 0.364576	 0.000000
							CHANNELS 3 Zrotation Xrotation Yrotation
							JOINT LeftHand
							{
								OFFSET	 0.000000	 0.360812	 0.000000
								CHANNELS 3 Zrotation Xrotation Yrotation
								JOINT LeftHandIndex1
								{
									OFFSET	 0.000000	 0.086006	 0.000000
									CHANNELS 3 Zrotation Xrotation Yrotation
									JOINT LeftHandIndex2
									{
										OFFSET	 0.000000	 0.047237	 0.000000
										CHANNELS 3 Zrotation Xrotation Yrotation
										JOINT LeftHandIndex3
										{
											OFFSET	-0.004284	 0.038165	 0.000551
											CHANNELS 3 Zrotation Xrotation Yrotation
											End Site
											{
												OFFSET	-0.004284	 0.038165	 0.000551
											}
										}
									}
								}
							}
						}
					}
				}
				JOINT Neck
				{
					OFFSET	 0.000000	 0.176489	 0.000000
					CHANNELS 3 Zrotation Xrotation Yrotation
					JOINT Head
					{
						OFFSET	 0.000000	 0.077941	 0.001747
						CHANNELS 3 Zrotation Xrotation Yrotation
						End Site
						{
							OFFSET	 0.000000	 0.077941	 0.001747
						}
					}
				}
				JOINT RightShoulder
				{
					OFFSET	-0.080363	 0.159706	-0.000306
					CHANNELS 3 Zrotation Xrotation Yrotation
					JOINT RightArm
					{
						OFFSET	 0.000000	 0.164196	 0.000000
						CHANNELS 3 Zrotation Xrotation Yrotation
						JOINT RightForeArm
						{
							OFFSET	 0.000000	 0.365611	 0.000000
							CHANNELS 3 Zrotation Xrotation Yrotation
							JOINT RightHand
							{
								OFFSET	 0.000000	 0.360648	 0.000000
								CHANNELS 3 Zrotation Xrotation Yrotation
								JOINT RightHandIndex1
								{
									OFFSET	 0.000000	 0.069977	 0.000000
									CHANNELS 3 Zrotation Xrotation Yrotation
									JOINT RightHandIndex2
									{
										OFFSET	 0.000000	 0.052305	 0.000000
										CHANNELS 3 Zrotation Xrotation Yrotation
										JOINT RightHandIndex3
										{
											OFFSET	 0.009002	 0.042196	 0.000782
											CHANNELS 3 Zrotation Xrotation Yrotation
											End Site
											{
												OFFSET	 0.009002	 0.042196	 0.000782
											}
										}
									}
								}
							}
						}
					}
				}
			}
		}
	}
}
MOTION
Frames:    6
Frame Time: 0.03333334
 0.427134	 1.020646	 0.407447	-4.469595	-24.228500	-175.925800	 178.129500	 70.459750	-21.589730	 44.625780	-69.284590	 47.525340	 101.953400	 70.501430	-90.647050	 1.292262	 28.425850	-2.713146	 143.252100	 61.045100	 45.685670	-50.226460	-75.959390	-56.505750	-111.972200	 65.693210	 103.991300	-1.288183	 28.361890	 2.710176	-3.201590	 9.371520	 30.676300	 2.944657	 16.624140	 0.871625	-2.356152	-5.586616	-12.248040	-114.490900	 20.858200	 99.199840	 80.439870	 19.669680	-8.014358	 10.557690	-5.035241	-57.397380	 40.571670	-5.949097	 69.930630	-6.580301	 5.266122	 0.000000	 0.000000	 0.000000	 0.000000	 0.000000	 0.000000	 0.000000	-1.218078	-2.373125	-0.974306	 0.591155	-11.748680	-3.469957	 118.354900	 21.255840	-100.730600	-42.205890	 15.655210	 0.961888	-68.184560	 1.938228	 16.426000	-1.344177	-56.127530	-75.698150	 15.208500	 5.323790	 0.000000	 0.000000	 0.000000	 0.000000	 0.000000	 0.000000	 0.000000
 0.425778	 1.046033	 0.391790	-3.462149	-22.156340	-175.389600	 179.555400	 65.642590	-22.433360	 38.235040	-66.768530	 41.513330	 98.829120	 71.344280	-88.137500	 1.292262	 28.425850	-2.713146	 148.183300	 56.019150	 42.718650	-38.848270	-72.963750	-44.068080	-112.855100	 68.139380	 105.362100	-1.288183	 28.361890	 2.710176	-1.962668	 8.669457	 25.358530	 2.714773	 15.892640	 1.364594	-1.755855	-6.949604	-12.285480	-115.878700	 19.312110	 98.822940	 79.741270	 24.952820	-7.598605	 9.310238	-3.875402	-51.016020	 42.995430	-3.702060	 68.749660	-6.580301	 5.266122	 0.000000	 0.000000	 0.000000	 0.000000	 0.000000	 0.000000	 0.000000	-1.685512	-2.611271	-1.036642	 0.735624	-11.119930	-3.550308	 119.630500	 19.439410	-100.179400	-39.573730	 17.176860	-0.367007	-71.126470	 1.954944	 10.732340	 2.170655	-52.497530	-71.514340	 15.208500	 5.323790	 0.000000	 0.000000	 0.000000	 0.000000	 0.000000	 0.000000	 0.000000
 0.425782	 1.234808	 0.238880	 0.068184	-5.731373	-173.938200	-177.105700	 20.170980	-23.888570	 9.401675	-31.587580	 9.143204	 17.036420	 78.738690	-13.109800	 1.292262	 28.425850	-2.713146	 171.524200	 8.560110	 32.129520	-5.527731	-26.618480	-0.849953	 6.402035	 82.229030	-7.855892	-1.288183	 28.361890	 2.710176	 1.651280	 1.641419	-28.516290	-2.317336	 1.269164	 3.003837	 1.914046	-5.864560	-12.149220	-120.727600	 5.338703	 92.969730	 24.884140	 48.394140	 34.271050	 14.063340	-3.530287	 10.755870	 87.009160	-13.348650	 3.969590	-6.580301	 5.266122	 0.000000	 0.000000	 0.000000	 0.000000	 0.000000	 0.000000	 0.000000	 0.308358	 7.948338	-1.723455	 0.342779	-7.933127	-3.484711	 123.869800	 6.393317	-94.359830	-25.359790	 16.621420	 4.151164	-95.480040	 4.019808	-42.732200	 16.878290	-37.747670	 15.291640	 15.208500	 5.323790	 0.000000	 0.000000	 0.000000	 0.000000	 0.000000	 0.000000	 0.000000
 0.426513	 1.242495	 0.231728	 0.031546	-4.586580	-174.175100	-177.114300	 17.103150	-24.129220	 8.368618	-28.716130	 8.109559	 11.582300	 77.699750	-8.078994	 1.292262	 28.425850	-2.713146	 172.423300	 5.194310	 31.611380	-4.605459	-22.672590	-0.547502	 5.689009	 80.348870	-6.868865	-1.288183	 28.361890	 2.710176	 1.560089	 1.441057	-30.965580	-2.518702	 0.928884	 3.071313	 2.011301	-5.912747	-12.022020	-121.125500	 4.541554	 92.602520	 25.113940	 41.804260	 32.494870	 15.697360	-3.982791	 15.749250	 86.501430	-14.725580	-11.814770	-6.580301	 5.266122	 0.000000	 0.000000	 0.000000	 0.000000	 0.000000	 0.000000	 0.000000	 0.344591	 7.628114	-1.638498	 0.322541	-7.163296	-3.470621	 123.738300	 5.904798	-94.091310	-22.427950	 15.478600	 3.802700	-95.523620	 4.471749	-47.372380	 14.690630	-39.880230	 27.102690	 15.208500	 5.323790	 0.000000	 0.000000	 0.000000	 0.000000	 0.000000	 0.000000	 0.000000
 0.426557	 1.252090	 0.222202	-0.020599	-3.268643	-174.448300	-177.264800	 13.108400	-24.370410	 6.979188	-24.578770	 6.860426	 6.254485	 76.008610	-3.140039	 1.292262	 28.425850	-2.713146	 173.589500	 0.550079	 31.058110	-3.295444	-16.650660	-0.250461	 4.512129	 77.466200	-5.418240	-1.288183	 28.361890	 2.710176	 1.381414	 1.272504	-32.043020	-2.970553	-0.596111	 3.077249	 2.255455	-5.447094	-11.857780	-121.592900	 3.620463	 92.170230	 26.433150	 31.881470	 29.880790	 17.426680	-4.429315	 21.200460	 83.452810	-14.496960	-32.278000	-6.580301	 5.266122	 0.000000	 0.000000	 0.000000	 0.000000	 0.000000	 0.000000	 0.000000	 0.387169	 7.256881	-1.539812	 0.297502	-6.270704	-3.454186	 123.588800	 5.337590	-93.781670	-18.347540	 13.771090	 2.853596	-93.237860	 4.970747	-52.424450	 10.600010	-41.506330	 40.970500	 15.208500	 5.323790	 0.000000	 0.000000	 0.000000	 0.000000	 0.000000	 0.000000	 0.000000
 0.425223	 1.258771	 0.215274	-0.039264	-2.225182	-174.703500	-177.461300	 9.984554	-24.590000	 5.918538	-21.213520	 5.924829	 3.024560	 74.522320	-0.097814	 1.292262	 28.425850	-2.713146	 174.788000	-4.034512	 30.670740	-1.895394	-9.763928	-0.076489	 3.250108	 74.027800	-4.125864	-1.288183	 28.361890	 2.710176	 1.218138	 1.157877	-31.371630	-3.123059	-1.195518	 3.079632	 2.329895	-5.381505	-11.722910	-121.924200	 2.946350	 91.847590	 28.326970	 24.532640	 27.970910	 18.892930	-4.816586	 25.724640	 80.189840	-13.038740	-47.980960	-6.580301	 5.266122	 0.000000	 0.000000	 0.000000	 0.000000	 0.000000	 0.000000	 0.000000	 0.429683	 6.875147	-1.450504	 0.240712	-5.547423	-3.434884	 123.460400	 4.918644	-93.552560	-15.943080	 13.016840	 1.456310	-90.105520	 5.387628	-56.683560	 6.057754	-42.956870	 51.213800	 15.208500	 5.323790	 0.000000	 0.000000	 0.000000	 0.000000	 0.000000	 0.000000	 0.000000
